<svg xmlns="http://www.w3.org/2000/svg" width="1296" height="400"><g style="transform: translate(60px, 15px);" stroke="none" fill="#000000" stroke-width="1px"><path d="M0,237.98879551820724L3.3543956043956045,263.5658263305322L6.708791208791209,274.0672268907563L10.063186813186814,246.6218487394958L13.417582417582418,265.3697478991596L16.771978021978022,253.9663865546218L20.126373626373628,218.14565826330528L23.480769230769234,211.38095238095235L26.835164835164836,248.68347338935573L30.189560439560438,245.84873949579833L33.40418956043956,247.58823529411762L36.75858516483517,279.60784313725486L40.112980769230774,305.63585434173666L43.46737637362637,287.467787114846L46.82177197802198,238.69747899159665L50.176167582417584,232.77030812324927L53.53056318681318,205.7759103641456L56.884958791208796,197.9803921568627L60.239354395604394,237.66666666666663L63.59375,243.14285714285714L66.9481456043956,253.45098039215685L70.30254120879121,269.1708683473389L73.65693681318682,278.8347338935574L77.01133241758241,287.2100840336134L80.36572802197803,232.06162464985994L83.72012362637363,233.22128851540617L87.07451923076923,174.20728291316527L90.42891483516483,165.89635854341736L93.78331043956045,127.69187675070029L97.13770604395604,107.33333333333329L100.49210164835165,120.28291316526605L103.84649725274726,121.24929971988797L107.20089285714285,141.41456582633057L110.55528846153845,157.4565826330532L113.90968406593407,217.8879551820728L117.26407967032968,241.59663865546213L120.61847527472527,283.0224089635854L123.97287087912088,226.77871148459383L127.32726648351648,206.8067226890756L130.6816620879121,191.7955182072829L134.03605769230768,194.30812324929968L137.3904532967033,229.48459383753502L140.74484890109892,260.7310924369748L144.0992445054945,257.703081232493L147.4536401098901,252.09803921568624L150.80803571428572,254.2240896358543L154.1624313186813,230.0644257703081L157.51682692307693,278.25490196078425L160.87122252747253,262.7927170868347L164.22561813186812,241.08123249299717L167.58001373626374,220.72268907563023L170.93440934065936,193.08403361344537L174.28880494505495,164.67226890756302L177.64320054945057,143.73389355742296L180.99759615384616,137.3557422969188L184.35199175824175,178.84593837535016L187.70638736263737,165.50980392156856L191.06078296703296,193.08403361344537L194.41517857142856,192.82633053221286L197.76957417582418,181.35854341736695L201.12396978021977,189.9271708683473L204.47836538461536,175.36694677871145L207.832760989011,166.99159663865544L211.1871565934066,189.7983193277311L214.5415521978022,178.7170868347338L217.8959478021978,189.34733893557421L221.2503434065934,210.28571428571428L224.60473901098902,203.71428571428572L227.9591346153846,217.56582633053222L231.3135302197802,149.46778711484595L234.66792582417582,149.14565826330534L238.02232142857142,136.06722689075633L241.37671703296704,161.8375350140056L244.73111263736266,177.23529411764707L248.08550824175825,200.62184873949582L251.43990384615384,204.93837535014003L254.79429945054946,190.63585434173672L258.14869505494505,205.45378151260505L261.50309065934067,227.1008403361344L264.8574862637363,189.7983193277311L268.21188186813185,197.72268907563023L271.5662774725275,246.6218487394958L274.9206730769231,199.84873949579833L278.27506868131866,233.80112044817923L281.6294642857143,185.67507002801116L284.9838598901099,150.6918767507003L288.33825549450546,168.92436974789914L291.69265109890114,191.47338935574226L295.0470467032967,149.40336134453779L298.4014423076923,161.3221288515406L301.75583791208794,186.19047619047615L305.1102335164835,176.65546218487393L308.4646291208791,132.00840336134445L311.8190247252747,130.5266106442577L315.17342032967036,129.2380952380952L318.5278159340659,170.6638655462184L321.88221153846155,134.97198879551823L325.23660714285717,113.06722689075622L328.59100274725273,105.33613445378145L331.94539835164835,57.33893557422971L335.29979395604397,143.41176470588235L338.6541895604396,171.5658263305322L342.00858516483515,168.92436974789914L345.3629807692308,143.28291316526602L348.71737637362634,136.77591036414566L352.07177197802196,129.36694677871148L355.42616758241763,160.484593837535L358.7805631868132,148.11484593837528L362.1349587912088,145.85994397759103L365.4893543956044,152.36694677871148L368.84375,141.0280112044818L372.1981456043956,121.5070028011204L375.55254120879124,149.78991596638653L378.9069368131868,143.9915966386554L382.2613324175824,139.86834733893562L385.615728021978,108.49299719887955L388.9701236263736,113.71148459383755L392.3245192307693,125.56582633053216L395.67891483516485,150.11204481792709L399.03331043956047,152.36694677871148L402.38770604395603,158.93837535014003L405.74210164835165,125.30812324929974L409.0964972527472,80.91876750700283L412.4508928571429,54.56862745098033L415.80528846153845,73.05882352941177L419.1596840659341,0L422.51407967032964,93.67507002801119L425.86847527472526,160.16246498599432L429.2228708791208,203.32773109243695L432.5772664835165,122.47338935574231L435.9316620879121,128.85154061624647L439.2860576923077,167.37815126050418L442.6404532967033,132.5882352941176L445.99484890109886,115.19327731092434L449.34924450549454,105.27170868347335L452.7036401098901,120.99159663865541L456.0580357142857,138.77310924369743L459.4124313186813,147.72829131652662L462.7668269230769,155.78151260504202L466.1212225274725,114.42016806722691L469.47561813186815,130.97759103641457L472.83001373626377,169.89075630252097L476.18440934065933,179.10364145658258L479.53880494505495,192.50420168067222L482.8932005494505,179.81232492997196L486.24759615384613,187.35014005602238L489.6019917582418,171.2436974789916L492.9563873626374,178.45938375350138L496.310782967033,158.7450980392157L499.66517857142856,159.32492997198875L503.0195741758242,175.49579831932763L506.3739697802198,180.84313725490202L509.7283653846154,149.78991596638653L513.082760989011,145.28011204481788L516.4371565934066,109.58823529411768L519.7915521978022,72.67226890756302L523.1459478021977,42.77871148459383L526.5003434065934,92.64425770308117L529.8547390109891,89.03641456582636L533.2091346153846,166.21848739495792L536.5635302197802,155.58823529411768L539.9179258241758,130.33333333333334L543.2723214285714,181.48739495798318L546.626717032967,202.55462184873943L549.9811126373627,173.17647058823525L553.3355082417582,165.31652661064425L556.6899038461538,194.24369747899155L560.0442994505494,201.65266106442579L563.398695054945,202.61904761904762L566.7530906593407,191.60224089635852L570.1074862637363,184.51540616246498L573.4618818681319,214.60224089635852L576.8162774725274,190.63585434173672L580.1706730769231,175.36694677871145L583.5250686813187,156.812324929972L586.8794642857143,182.7114845938375L590.2338598901099,154.94397759103637L593.5882554945055,197.59383753501396L596.942651098901,180.90756302521007L600.2970467032967,180.90756302521007L603.6514423076924,175.36694677871145L607.0058379120879,148.5658263305322L610.3602335164835,134.843137254902L613.7146291208791,111.52100840336132L617.0690247252747,148.8879551820728L620.4234203296703,174.33613445378148L623.7778159340659,197.078431372549L627.1322115384614,171.4369747899159L630.4866071428572,188.9607843137255L633.8410027472528,217.37254901960785L637.1953983516484,207.0644257703081L640.549793956044,232.12605042016804L643.9041895604396,203.45658263305322L647.2585851648352,236.7647058823529L650.6129807692307,233.47899159663865L653.9673763736264,238.69747899159665L657.321771978022,213.8935574229692L660.6761675824175,204.16526610644254L664.0305631868131,218.78991596638656L667.3849587912088,220.46498599439772L670.7393543956044,221.04481792717087L674.09375,228.7114845938375L677.4481456043957,220.9159663865546L680.8025412087912,216.92156862745094L684.1569368131868,217.43697478991595L687.5113324175824,249.07002801120444L690.865728021978,227.87394957983193L694.2201236263736,243.14285714285714L697.5745192307692,245.39775910364148L700.9289148351647,219.62745098039215L704.2833104395604,230.45098039215685L707.6377060439561,230L710.9921016483516,253.51540616246496L714.3464972527473,241.85434173669464L717.7008928571429,241.08123249299717L721.0552884615385,239.08403361344534L724.409684065934,233.67226890756302L727.7640796703297,246.55742296918768L731.1184752747253,286.37254901960785L734.4728708791208,259.7647058823529L737.9670329670329,277.7394957983193L741.3214285714286,260.7955182072829L744.6758241758242,252.54901960784312L748.0302197802198,262.3417366946778L751.3846153846155,233.47899159663865L754.739010989011,237.92436974789916L758.0934065934066,261.0532212885154L761.4478021978022,259.7647058823529L764.8021978021978,267.5602240896358L768.1565934065934,303.44537815126046L771.510989010989,293.1372549019608L774.8653846153845,290.30252100840335L778.2197802197802,315.81512605042013L781.5741758241758,290.7535014005602L784.9285714285714,292.6218487394958L788.2829670329671,286.5658263305322L791.6373626373627,298.7422969187675L794.9917582417582,304.0252100840336L798.3461538461538,279.672268907563L801.7005494505495,280.63865546218483L805.054945054945,290.6890756302521L808.4093406593406,304.15406162464984L811.7637362637362,313.62464985994393L815.1181318681319,313.94677871148457L818.4725274725274,320.1316526610644L821.8269230769231,286.37254901960785L825.1813186813188,278.7058823529411L828.5357142857143,282.1848739495798L831.8901098901099,270.7170868347339L835.2445054945055,256.60784313725486L838.5989010989011,281.6694677871148L841.9532967032967,281.6694677871148L845.3076923076923,312.9803921568627L848.6620879120878,322.7731092436975L852.0164835164835,324.25490196078425L855.3708791208791,329.92436974789916L858.7252747252747,317.8767507002801L862.0796703296704,316.07282913165267L865.434065934066,252.09803921568624L868.7884615384615,249.58543417366946L872.1428571428571,270.2016806722689L875.4972527472528,256.41456582633054L878.8516483516484,302.54341736694676L882.2060439560439,239.85714285714286L885.5604395604395,316.97478991596637L888.9148351648352,304.86274509803917L892.2692307692307,297.13165266106444L895.6236263736263,315.55742296918766L898.9780219780221,325.54341736694676L902.3324175824176,321.87114845938373L905.6868131868132,345L909.0412087912088,275.03361344537814L912.3956043956044,261.69747899159665L915.75,283.47338935574226L919.1043956043956,297.32492997198875L922.4587912087912,298.87114845938373L925.8131868131868,282.7647058823529L929.1675824175824,283.859943977591L932.5219780219779,305.57142857142856L935.8763736263737,319.2941176470588L939.2307692307693,303.89635854341736L942.5851648351648,290.88235294117646L945.9395604395605,294.8767507002801L949.2939560439561,298.3557422969188L952.6483516483516,308.5350140056022L956.0027472527472,321.484593837535L959.3571428571429,265.04761904761904L962.7115384615385,269.235294117647L966.065934065934,283.2156862745098L969.4203296703296,280.89635854341736L972.7747252747253,282.6358543417367L976.1291208791209,231.4173669467787L979.4835164835165,252.61344537815125L982.8379120879122,270.39495798319325L986.1923076923077,309.75910364145653L989.5467032967033,245.97759103641454L992.9010989010989,281.2829131652661L996.2554945054945,277.80392156862746L999.6098901098901,277.2240896358543L1002.9642857142857,285.72829131652657L1006.3186813186812,256.2212885154062L1009.6730769230769,294.6190476190476L1013.0274725274726,298.61344537815125L1016.3818681318681,342.1008403361344L1019.7362637362638,340.16806722689074L1023.0906593406594,312.0140056022409L1026.445054945055,281.86274509803917L1029.7994505494505,300.93277310924367L1033.1538461538462,291.65546218487395L1036.5082417582416,311.11204481792714L1039.8626373626373,288.94957983193274L1043.217032967033,299.51540616246496L1046.5714285714284,316.00840336134456L1049.9258241758243,293.07282913165267L1053.2802197802198,267.36694677871145L1056.6346153846155,248.03921568627447L1059.989010989011,268.0112044817927L1063.3434065934066,266.65826330532207L1066.6978021978023,283.73109243697473L1070.0521978021977,271.94117647058823L1073.4065934065934,295.0700280112045L1076.760989010989,293.1372549019608L1080.1153846153845,288.04761904761904L1083.4697802197802,270.5882352941176L1086.8241758241757,246.04201680672264L1090.1785714285716,308.14845938375345L1093.532967032967,327.21848739495795L1096.8873626373627,307.4397759103641L1100.2417582417584,299.5798319327731L1103.5961538461538,274.19607843137254L1106.9505494505495,248.42577030812322L1110.304945054945,259.50700280112045L1113.6593406593406,273.8739495798319L1117.0137362637363,284.0532212885154L1120.3681318681317,280.89635854341736L1123.7225274725274,278.8347338935574L1127.076923076923,278.25490196078425L1130.4313186813188,252.67787114845936L1133.7857142857142,294.68347338935575L1137.14010989011,260.40896358543415L1140.4945054945056,304.2829131652661L1143.848901098901,322.3221288515406L1147.2032967032967,312.9803921568627L1150.5576923076924,272.327731092437L1153.9120879120878,262.01960784313724L1157.2664835164835,298.8067226890756L1160.620879120879,305.50700280112045L1163.9752747252749,319.2941176470588L1167.3296703296703,298.4201680672269L1170.684065934066,293.33053221288515L1174.0384615384617,278.7058823529411L1177.392857142857,259.82913165266103L1180.7472527472528,263.9523809523809L1184.1016483516482,260.6022408963585L1187.456043956044,238.50420168067228L1190.8104395604396,250.61624649859942L1194.164835164835,283.73109243697473L1197.5192307692307,264.7899159663865L1200.8736263736264,254.6106442577031L1204.228021978022,268.14005602240894L1207.5824175824175,258.34733893557416L1210.9368131868132,231.28851540616245L1214.2912087912089,239.72829131652662L1217.6456043956043,270.4593837535014L1221,273.0364145658263" fill="none" stroke="#7f33ff" stroke-width="2px"></path><g fill="none" font-size="10" font-family="sans-serif" text-anchor="end" stroke="none" stroke-width="1px"><path class="domain" stroke="#000000" d="M-6,345.5H0.5V0.5H-6" fill="none" stroke-width="1px"></path><g class="tick" opacity="1" transform="translate(0,342.4719887955182)" stroke="none" fill="none" stroke-width="1px"><line stroke="#000000" x2="-6" fill="none" stroke-width="1px"></line><text fill="#000000" x="-9" dy="0.32em" stroke="none" stroke-width="1px">4</text></g><g class="tick" opacity="1" transform="translate(0,319.2787114845938)" stroke="none" fill="none" stroke-width="1px"><line stroke="#000000" x2="-6" fill="none" stroke-width="1px"></line><text fill="#000000" x="-9" dy="0.32em" stroke="none" stroke-width="1px">6</text></g><g class="tick" opacity="1" transform="translate(0,296.08543417366946)" stroke="none" fill="none" stroke-width="1px"><line stroke="#000000" x2="-6" fill="none" stroke-width="1px"></line><text fill="#000000" x="-9" dy="0.32em" stroke="none" stroke-width="1px">8</text></g><g class="tick" opacity="1" transform="translate(0,272.8921568627451)" stroke="none" fill="none" stroke-width="1px"><line stroke="#000000" x2="-6" fill="none" stroke-width="1px"></line><text fill="#000000" x="-9" dy="0.32em" stroke="none" stroke-width="1px">10</text></g><g class="tick" opacity="1" transform="translate(0,249.6988795518207)" stroke="none" fill="none" stroke-width="1px"><line stroke="#000000" x2="-6" fill="none" stroke-width="1px"></line><text fill="#000000" x="-9" dy="0.32em" stroke="none" stroke-width="1px">12</text></g><g class="tick" opacity="1" transform="translate(0,226.50560224089634)" stroke="none" fill="none" stroke-width="1px"><line stroke="#000000" x2="-6" fill="none" stroke-width="1px"></line><text fill="#000000" x="-9" dy="0.32em" stroke="none" stroke-width="1px">14</text></g><g class="tick" opacity="1" transform="translate(0,203.31232492997196)" stroke="none" fill="none" stroke-width="1px"><line stroke="#000000" x2="-6" fill="none" stroke-width="1px"></line><text fill="#000000" x="-9" dy="0.32em" stroke="none" stroke-width="1px">16</text></g><g class="tick" opacity="1" transform="translate(0,180.1190476190476)" stroke="none" fill="none" stroke-width="1px"><line stroke="#000000" x2="-6" fill="none" stroke-width="1px"></line><text fill="#000000" x="-9" dy="0.32em" stroke="none" stroke-width="1px">18</text></g><g class="tick" opacity="1" transform="translate(0,156.92577030812322)" stroke="none" fill="none" stroke-width="1px"><line stroke="#000000" x2="-6" fill="none" stroke-width="1px"></line><text fill="#000000" x="-9" dy="0.32em" stroke="none" stroke-width="1px">20</text></g><g class="tick" opacity="1" transform="translate(0,133.73249299719888)" stroke="none" fill="none" stroke-width="1px"><line stroke="#000000" x2="-6" fill="none" stroke-width="1px"></line><text fill="#000000" x="-9" dy="0.32em" stroke="none" stroke-width="1px">22</text></g><g class="tick" opacity="1" transform="translate(0,110.5392156862745)" stroke="none" fill="none" stroke-width="1px"><line stroke="#000000" x2="-6" fill="none" stroke-width="1px"></line><text fill="#000000" x="-9" dy="0.32em" stroke="none" stroke-width="1px">24</text></g><g class="tick" opacity="1" transform="translate(0,87.34593837535016)" stroke="none" fill="none" stroke-width="1px"><line stroke="#000000" x2="-6" fill="none" stroke-width="1px"></line><text fill="#000000" x="-9" dy="0.32em" stroke="none" stroke-width="1px">26</text></g><g class="tick" opacity="1" transform="translate(0,64.15266106442573)" stroke="none" fill="none" stroke-width="1px"><line stroke="#000000" x2="-6" fill="none" stroke-width="1px"></line><text fill="#000000" x="-9" dy="0.32em" stroke="none" stroke-width="1px">28</text></g><g class="tick" opacity="1" transform="translate(0,40.959383753501356)" stroke="none" fill="none" stroke-width="1px"><line stroke="#000000" x2="-6" fill="none" stroke-width="1px"></line><text fill="#000000" x="-9" dy="0.32em" stroke="none" stroke-width="1px">30</text></g><g class="tick" opacity="1" transform="translate(0,17.766106442576984)" stroke="none" fill="none" stroke-width="1px"><line stroke="#000000" x2="-6" fill="none" stroke-width="1px"></line><text fill="#000000" x="-9" dy="0.32em" stroke="none" stroke-width="1px">32</text></g></g><g fill="none" font-size="10" font-family="sans-serif" text-anchor="middle" style="transform: translateY(345px);" stroke="none" stroke-width="1px"><path class="domain" stroke="#000000" d="M0.5,6V0.5H1221.5V6" fill="none" stroke-width="1px"></path><g class="tick" opacity="1" transform="translate(33.90418956043956,0)" stroke="none" fill="none" stroke-width="1px"><line stroke="#000000" y2="6" fill="none" stroke-width="1px"></line><text fill="#000000" y="9" dy="0.71em" stroke="none" stroke-width="1px">April</text></g><g class="tick" opacity="1" transform="translate(134.53605769230768,0)" stroke="none" fill="none" stroke-width="1px"><line stroke="#000000" y2="6" fill="none" stroke-width="1px"></line><text fill="#000000" y="9" dy="0.71em" stroke="none" stroke-width="1px">May</text></g><g class="tick" opacity="1" transform="translate(238.52232142857142,0)" stroke="none" fill="none" stroke-width="1px"><line stroke="#000000" y2="6" fill="none" stroke-width="1px"></line><text fill="#000000" y="9" dy="0.71em" stroke="none" stroke-width="1px">June</text></g><g class="tick" opacity="1" transform="translate(339.1541895604396,0)" stroke="none" fill="none" stroke-width="1px"><line stroke="#000000" y2="6" fill="none" stroke-width="1px"></line><text fill="#000000" y="9" dy="0.71em" stroke="none" stroke-width="1px">July</text></g><g class="tick" opacity="1" transform="translate(443.1404532967033,0)" stroke="none" fill="none" stroke-width="1px"><line stroke="#000000" y2="6" fill="none" stroke-width="1px"></line><text fill="#000000" y="9" dy="0.71em" stroke="none" stroke-width="1px">August</text></g><g class="tick" opacity="1" transform="translate(547.126717032967,0)" stroke="none" fill="none" stroke-width="1px"><line stroke="#000000" y2="6" fill="none" stroke-width="1px"></line><text fill="#000000" y="9" dy="0.71em" stroke="none" stroke-width="1px">September</text></g><g class="tick" opacity="1" transform="translate(647.7585851648352,0)" stroke="none" fill="none" stroke-width="1px"><line stroke="#000000" y2="6" fill="none" stroke-width="1px"></line><text fill="#000000" y="9" dy="0.71em" stroke="none" stroke-width="1px">October</text></g><g class="tick" opacity="1" transform="translate(751.8846153846155,0)" stroke="none" fill="none" stroke-width="1px"><line stroke="#000000" y2="6" fill="none" stroke-width="1px"></line><text fill="#000000" y="9" dy="0.71em" stroke="none" stroke-width="1px">November</text></g><g class="tick" opacity="1" transform="translate(852.5164835164835,0)" stroke="none" fill="none" stroke-width="1px"><line stroke="#000000" y2="6" fill="none" stroke-width="1px"></line><text fill="#000000" y="9" dy="0.71em" stroke="none" stroke-width="1px">December</text></g><g class="tick" opacity="1" transform="translate(956.5027472527472,0)" stroke="none" fill="none" stroke-width="1px"><line stroke="#000000" y2="6" fill="none" stroke-width="1px"></line><text fill="#000000" y="9" dy="0.71em" stroke="none" stroke-width="1px">2020</text></g><g class="tick" opacity="1" transform="translate(1060.489010989011,0)" stroke="none" fill="none" stroke-width="1px"><line stroke="#000000" y2="6" fill="none" stroke-width="1px"></line><text fill="#000000" y="9" dy="0.71em" stroke="none" stroke-width="1px">February</text></g><g class="tick" opacity="1" transform="translate(1157.7664835164835,0)" stroke="none" fill="none" stroke-width="1px"><line stroke="#000000" y2="6" fill="none" stroke-width="1px"></line><text fill="#000000" y="9" dy="0.71em" stroke="none" stroke-width="1px">March</text></g></g></g></svg>